<svg width="160" height="160" viewBox="0 0 160 160" fill="none" xmlns="http://www.w3.org/2000/svg">
<g clip-path="url(#clip0_332_133)">
<path fill-rule="evenodd" clip-rule="evenodd" d="M35 60C33.6739 60 32.4021 60.5268 31.4645 61.4645C30.5268 62.4021 30 63.6739 30 65V145C30 146.326 30.5268 147.598 31.4645 148.536C32.4021 149.473 33.6739 150 35 150H125C126.326 150 127.598 149.473 128.536 148.536C129.473 147.598 130 146.326 130 145V65C130 63.6739 129.473 62.4021 128.536 61.4645C127.598 60.5268 126.326 60 125 60H105C103.674 60 102.402 59.4732 101.464 58.5355C100.527 57.5979 100 56.3261 100 55C100 53.6739 100.527 52.4021 101.464 51.4645C102.402 50.5268 103.674 50 105 50H125C128.978 50 132.794 51.5804 135.607 54.3934C138.42 57.2064 140 61.0218 140 65V145C140 148.978 138.42 152.794 135.607 155.607C132.794 158.42 128.978 160 125 160H35C31.0218 160 27.2064 158.42 24.3934 155.607C21.5804 152.794 20 148.978 20 145V65C20 61.0218 21.5804 57.2064 24.3934 54.3934C27.2064 51.5804 31.0218 50 35 50H55C56.3261 50 57.5979 50.5268 58.5355 51.4645C59.4732 52.4021 60 53.6739 60 55C60 56.3261 59.4732 57.5979 58.5355 58.5355C57.5979 59.4732 56.3261 60 55 60H35Z" fill="#FC56FF"/>
<path fill-rule="evenodd" clip-rule="evenodd" d="M76.4585 118.54C76.923 119.006 77.4747 119.375 78.0822 119.627C78.6896 119.879 79.3408 120.009 79.9985 120.009C80.6562 120.009 81.3074 119.879 81.9148 119.627C82.5223 119.375 83.0741 119.006 83.5385 118.54L113.539 88.54C114.477 87.6011 115.005 86.3278 115.005 85C115.005 83.6722 114.477 82.3989 113.539 81.46C112.6 80.5211 111.326 79.9937 109.999 79.9937C108.671 79.9937 107.397 80.5211 106.459 81.46L84.9985 102.93V15C84.9985 13.6739 84.4717 12.4021 83.534 11.4645C82.5964 10.5268 81.3246 10 79.9985 10C78.6724 10 77.4007 10.5268 76.463 11.4645C75.5253 12.4021 74.9985 13.6739 74.9985 15V102.93L53.5385 81.46C52.5996 80.5211 51.3263 79.9937 49.9985 79.9937C48.6707 79.9937 47.3974 80.5211 46.4585 81.46C45.5196 82.3989 44.9922 83.6722 44.9922 85C44.9922 86.3278 45.5196 87.6011 46.4585 88.54L76.4585 118.54Z" fill="#FC56FF"/>
<path fill-rule="evenodd" clip-rule="evenodd" d="M35 60C33.6739 60 32.4021 60.5268 31.4645 61.4645C30.5268 62.4021 30 63.6739 30 65V145C30 146.326 30.5268 147.598 31.4645 148.536C32.4021 149.473 33.6739 150 35 150H125C126.326 150 127.598 149.473 128.536 148.536C129.473 147.598 130 146.326 130 145V65C130 63.6739 129.473 62.4021 128.536 61.4645C127.598 60.5268 126.326 60 125 60H105C103.674 60 102.402 59.4732 101.464 58.5355C100.527 57.5979 100 56.3261 100 55C100 53.6739 100.527 52.4021 101.464 51.4645C102.402 50.5268 103.674 50 105 50H125C128.978 50 132.794 51.5804 135.607 54.3934C138.42 57.2064 140 61.0218 140 65V145C140 148.978 138.42 152.794 135.607 155.607C132.794 158.42 128.978 160 125 160H35C31.0218 160 27.2064 158.42 24.3934 155.607C21.5804 152.794 20 148.978 20 145V65C20 61.0218 21.5804 57.2064 24.3934 54.3934C27.2064 51.5804 31.0218 50 35 50H55C56.3261 50 57.5979 50.5268 58.5355 51.4645C59.4732 52.4021 60 53.6739 60 55C60 56.3261 59.4732 57.5979 58.5355 58.5355C57.5979 59.4732 56.3261 60 55 60H35Z" fill="#FC56FF"/>
<path fill-rule="evenodd" clip-rule="evenodd" d="M76.4585 118.54C76.923 119.006 77.4747 119.375 78.0822 119.627C78.6896 119.879 79.3408 120.009 79.9985 120.009C80.6562 120.009 81.3074 119.879 81.9148 119.627C82.5223 119.375 83.074 119.006 83.5385 118.54L113.538 88.54C114.477 87.6011 115.005 86.3278 115.005 85C115.005 83.6722 114.477 82.3989 113.538 81.46C112.6 80.5211 111.326 79.9937 109.998 79.9937C108.671 79.9937 107.397 80.5211 106.458 81.46L84.9985 102.93V15C84.9985 13.6739 84.4717 12.4021 83.534 11.4645C82.5964 10.5268 81.3246 10 79.9985 10C78.6724 10 77.4007 10.5268 76.463 11.4645C75.5253 12.4021 74.9985 13.6739 74.9985 15V102.93L53.5385 81.46C52.5996 80.5211 51.3263 79.9937 49.9985 79.9937C48.6707 79.9937 47.3974 80.5211 46.4585 81.46C45.5196 82.3989 44.9922 83.6722 44.9922 85C44.9922 86.3278 45.5196 87.6011 46.4585 88.54L76.4585 118.54Z" fill="#FC56FF"/>
</g>
<defs>
<clipPath id="clip0_332_133">
<rect width="160" height="160" fill="white"/>
</clipPath>
</defs>
</svg>
