<svg width="88" height="88" viewBox="0 0 88 88" fill="none" xmlns="http://www.w3.org/2000/svg">
<g clip-path="url(#clip0_371_140)">
<path fill-rule="evenodd" clip-rule="evenodd" d="M88 44.0005C88 54.7385 84.0733 65.1059 76.9597 73.1495C69.846 81.1932 60.0365 86.3578 49.379 87.6705L59.84 48.6315C60.6217 45.9631 60.7162 43.1403 60.115 40.4255C59.5018 37.6648 58.1893 35.108 56.3035 33.0005H86.614C87.538 36.5941 88.0037 40.2901 88 44.0005ZM9.05572e-06 44.0005C-0.000473907 55.6008 4.58007 66.732 12.745 74.9721C20.91 83.2123 31.9987 87.8947 43.5985 88.0005L51.4415 58.735C50.1814 59.3707 48.845 59.842 47.465 60.1375C44.2601 60.8263 40.9228 60.5448 37.8785 59.329C35.7161 58.4649 33.7611 57.1528 32.142 55.479L3.48151 26.8185C1.18022 32.2543 -0.00377792 38.0976 9.05572e-06 44.0005ZM27.522 43.082L6.09401 21.6485C10.2667 14.5787 16.3333 8.81672 23.6085 5.01348C30.8838 1.21025 39.0776 -0.482644 47.2643 0.12607C55.4511 0.734785 63.3045 3.62084 69.9372 8.45819C76.57 13.2955 81.7178 19.8914 84.799 27.5005H44.363C41.9984 27.4473 39.65 27.9031 37.477 28.837C34.6529 30.0449 32.2236 32.0194 30.4641 34.5371C28.7047 37.0548 27.6855 40.0149 27.522 43.082ZM44 55.0005C46.9174 55.0005 49.7153 53.8416 51.7782 51.7787C53.8411 49.7158 55 46.9179 55 44.0005C55 41.0831 53.8411 38.2853 51.7782 36.2224C49.7153 34.1595 46.9174 33.0005 44 33.0005C41.0826 33.0005 38.2847 34.1595 36.2218 36.2224C34.1589 38.2853 33 41.0831 33 44.0005C33 46.9179 34.1589 49.7158 36.2218 51.7787C38.2847 53.8416 41.0826 55.0005 44 55.0005Z" fill="#2045FF"/>
</g>
<defs>
<clipPath id="clip0_371_140">
<rect width="88" height="88" fill="white"/>
</clipPath>
</defs>
</svg>
