<svg width="88" height="86" viewBox="0 0 88 86" fill="none" xmlns="http://www.w3.org/2000/svg">
<g clip-path="url(#clip0_370_133)">
<path d="M87.0373 0.644498C87.4887 1.02108 87.8034 1.53029 87.9342 2.09606C88.0651 2.66183 88.0051 3.25378 87.7633 3.7835C79.3483 22.2197 61.6768 47.6972 48.7408 60.9735C45.1106 64.6823 40.6402 67.5065 35.6893 69.2187C35.5903 70.4389 35.3593 72.1105 34.8093 73.8842C33.7038 77.4264 31.1408 81.8339 25.4153 83.2367C19.8707 84.5295 14.1238 84.7703 8.48628 83.9462C7.43939 83.7775 6.40636 83.535 5.39528 83.2206C4.4626 82.9408 3.59283 82.4902 2.83228 81.893C2.32913 81.4791 1.94285 80.9462 1.71028 80.345C1.4173 79.5757 1.42513 78.7278 1.73228 77.9639C2.25478 76.647 3.47028 75.9214 4.26778 75.5344C6.43478 74.4755 7.70528 73.0995 9.03628 71.0946C9.55878 70.3206 10.0483 69.4982 10.6148 68.5576L11.2583 67.4934C12.0888 66.1227 13.0513 64.5909 14.2613 62.9354C17.1653 58.9632 20.8668 57.9635 23.8643 58.1194C24.561 58.1624 25.199 58.2484 25.7783 58.3774C26.1193 57.4529 26.5593 56.3349 27.0873 55.1094C28.5228 51.7822 30.7063 47.4822 33.6158 43.9885C45.5838 29.6372 67.6058 10.6312 83.7593 0.429498C84.2566 0.115811 84.8442 -0.0327003 85.4348 0.00603425C86.0253 0.0447688 86.5873 0.268682 87.0373 0.644498Z" fill="#2045FF"/>
</g>
<defs>
<clipPath id="clip0_370_133">
<rect width="88" height="86" fill="white"/>
</clipPath>
</defs>
</svg>
