<svg width="88" height="88" viewBox="0 0 88 88" fill="none" xmlns="http://www.w3.org/2000/svg">
<path d="M63.25 33.1484C63.25 33.8778 62.9603 34.5773 62.4445 35.093C61.9288 35.6087 61.2293 35.8984 60.5 35.8984C59.7707 35.8984 59.0712 35.6087 58.5555 35.093C58.0397 34.5773 57.75 33.8778 57.75 33.1484C57.75 32.4191 58.0397 31.7196 58.5555 31.2039C59.0712 30.6882 59.7707 30.3984 60.5 30.3984C61.2293 30.3984 61.9288 30.6882 62.4445 31.2039C62.9603 31.7196 63.25 32.4191 63.25 33.1484ZM55 41.3984C55.7293 41.3984 56.4288 41.1087 56.9445 40.593C57.4603 40.0773 57.75 39.3778 57.75 38.6484C57.75 37.9191 57.4603 37.2196 56.9445 36.7039C56.4288 36.1882 55.7293 35.8984 55 35.8984C54.2707 35.8984 53.5712 36.1882 53.0555 36.7039C52.5397 37.2196 52.25 37.9191 52.25 38.6484C52.25 39.3778 52.5397 40.0773 53.0555 40.593C53.5712 41.1087 54.2707 41.3984 55 41.3984ZM68.75 38.6484C68.75 39.3778 68.4603 40.0773 67.9445 40.593C67.4288 41.1087 66.7293 41.3984 66 41.3984C65.2707 41.3984 64.5712 41.1087 64.0555 40.593C63.5397 40.0773 63.25 39.3778 63.25 38.6484C63.25 37.9191 63.5397 37.2196 64.0555 36.7039C64.5712 36.1882 65.2707 35.8984 66 35.8984C66.7293 35.8984 67.4288 36.1882 67.9445 36.7039C68.4603 37.2196 68.75 37.9191 68.75 38.6484ZM60.5 46.8984C61.2293 46.8984 61.9288 46.6087 62.4445 46.093C62.9603 45.5773 63.25 44.8778 63.25 44.1484C63.25 43.4191 62.9603 42.7196 62.4445 42.2039C61.9288 41.6882 61.2293 41.3984 60.5 41.3984C59.7707 41.3984 59.0712 41.6882 58.5555 42.2039C58.0397 42.7196 57.75 43.4191 57.75 44.1484C57.75 44.8778 58.0397 45.5773 58.5555 46.093C59.0712 46.6087 59.7707 46.8984 60.5 46.8984ZM24.75 30.3984H30.25V35.8984H35.75V41.3984H30.25V46.8984H24.75V41.3984H19.25V35.8984H24.75V30.3984Z" fill="#2045FF"/>
<path d="M16.7817 17.93C16.6878 17.5808 16.6637 17.2164 16.7107 16.8579C16.7578 16.4993 16.8751 16.1535 17.0559 15.8404C17.2368 15.5272 17.4776 15.2528 17.7647 15.0328C18.0517 14.8129 18.3793 14.6517 18.7287 14.5585L29.3547 11.7095C29.72 11.6121 30.1015 11.5911 30.4753 11.6478C30.849 11.7045 31.2071 11.8377 31.5271 12.039C31.8471 12.2403 32.1222 12.5054 32.3351 12.8178C32.5481 13.1301 32.6943 13.483 32.7647 13.8545C36.3672 13.42 40.1897 13.211 44.0012 13.211C47.9612 13.211 51.9378 13.4365 55.6613 13.904C55.7255 13.5269 55.8678 13.1674 56.0789 12.8484C56.29 12.5295 56.5653 12.258 56.8873 12.0515C57.2093 11.845 57.5708 11.7079 57.9487 11.649C58.3266 11.5901 58.7127 11.6107 59.0822 11.7095L69.7083 14.5585C70.1137 14.667 70.4889 14.8669 70.8052 15.1429C71.1215 15.4189 71.3704 15.7636 71.5328 16.1506C71.6953 16.5376 71.767 16.9567 71.7424 17.3757C71.7179 17.7947 71.5978 18.2026 71.3912 18.568C72.1649 19.0666 72.8487 19.6111 73.4427 20.2015C75.6867 22.4455 77.7328 25.9765 79.4653 29.9475C81.2253 33.979 82.7598 38.698 83.8928 43.5105C85.0258 48.323 85.7627 53.3005 85.8947 57.8435C86.0267 62.3315 85.5702 66.6545 84.0907 69.9985C83.4161 71.4998 82.2843 72.7496 80.857 73.5694C79.4298 74.3892 77.78 74.7371 76.1433 74.5635C72.6453 74.195 70.0108 72.3965 67.8218 70.312C66.4743 69.036 65.0938 67.419 63.7573 65.868C63.0643 65.054 62.3823 64.262 61.7333 63.5415C57.7293 59.1195 52.9497 55.143 44.0012 55.143C35.0527 55.143 30.2732 59.1195 26.2692 63.5415C25.6147 64.262 24.9382 65.054 24.2452 65.868C22.9087 67.419 21.5282 69.0305 20.1807 70.312C17.9917 72.402 15.3572 74.195 11.8592 74.5635C10.2225 74.7371 8.57271 74.3892 7.14546 73.5694C5.71821 72.7496 4.58645 71.4998 3.91175 69.9985C2.42675 66.6545 1.97575 62.326 2.10225 57.8435C2.23425 53.3005 2.98225 48.3285 4.10975 43.5105C5.24275 38.698 6.78275 33.979 8.53725 29.9475C10.2697 25.9765 12.3157 22.4455 14.5542 20.2015C15.2719 19.4947 16.0714 18.8761 16.9357 18.359L16.7817 17.93ZM27.9797 20.196C23.1562 21.2135 19.9002 22.6325 18.4482 24.09C16.9302 25.608 15.2197 28.3965 13.5807 32.1475C11.8486 36.2287 10.4721 40.4519 9.46675 44.77C8.41354 49.1093 7.78904 53.5416 7.60225 58.003C7.48125 62.1555 7.94325 65.527 8.93875 67.771C9.14262 68.208 9.47818 68.5704 9.89836 68.8071C10.3185 69.0438 10.8023 69.1431 11.2818 69.091C13.0803 68.904 14.6367 67.9965 16.3912 66.33C17.5572 65.219 18.5912 64.0035 19.7737 62.623C20.5052 61.765 21.2917 60.8465 22.1937 59.851C26.7367 54.8295 32.8802 49.6485 44.0012 49.6485C55.1222 49.6485 61.2658 54.8295 65.8088 59.851C66.7108 60.8465 67.4973 61.765 68.2288 62.623C69.4058 64.0035 70.4453 65.219 71.6113 66.33C73.3603 67.9965 74.9168 68.904 76.7208 69.0965C77.2008 69.1481 77.685 69.048 78.1053 68.8103C78.5255 68.5725 78.8607 68.2091 79.0638 67.771C80.0538 65.527 80.5213 62.161 80.4003 58.003C80.2135 53.5416 79.589 49.1093 78.5358 44.77C77.5304 40.4519 76.1539 36.2287 74.4218 32.1475C72.7828 28.3965 71.0668 25.6025 69.5543 24.09C68.1023 22.6325 64.8463 21.2135 60.0228 20.196C55.3478 19.2115 49.6992 18.711 44.0012 18.711C38.3032 18.711 32.6547 19.2115 27.9797 20.196Z" fill="#2045FF"/>
</svg>
