<svg width="88" height="88" viewBox="0 0 88 88" fill="none" xmlns="http://www.w3.org/2000/svg">
<path d="M47.8881 8.24997C46.8567 7.21888 45.458 6.63965 43.9996 6.63965C42.5412 6.63965 41.1425 7.21888 40.1111 8.24997L3.55257 44.803C3.29688 45.0587 3.09406 45.3622 2.95569 45.6963C2.81731 46.0303 2.74609 46.3884 2.74609 46.75C2.74609 47.1116 2.81731 47.4696 2.95569 47.8037C3.09406 48.1378 3.29688 48.4413 3.55257 48.697C4.06894 49.2134 4.7693 49.5034 5.49957 49.5034C5.86116 49.5034 6.21921 49.4322 6.55328 49.2939C6.88734 49.1555 7.19088 48.9527 7.44657 48.697L10.9996 45.1385V74.25C10.9996 76.438 11.8688 78.5364 13.4159 80.0836C14.9631 81.6308 17.0615 82.5 19.2496 82.5H41.2496C41.9789 82.5 42.6784 82.2102 43.1941 81.6945C43.7098 81.1788 43.9996 80.4793 43.9996 79.75C43.9996 79.0206 43.7098 78.3212 43.1941 77.8054C42.6784 77.2897 41.9789 77 41.2496 77H19.2496C18.5202 77 17.8207 76.7102 17.305 76.1945C16.7893 75.6788 16.4996 74.9793 16.4996 74.25V39.6385L43.9996 12.1385L80.5526 48.697C81.0689 49.2134 81.7693 49.5034 82.4996 49.5034C83.2298 49.5034 83.9302 49.2134 84.4466 48.697C84.9629 48.1806 85.253 47.4802 85.253 46.75C85.253 46.0197 84.9629 45.3194 84.4466 44.803L71.4996 31.8615V13.75C71.4996 13.0206 71.2098 12.3212 70.6941 11.8054C70.1784 11.2897 69.4789 11 68.7496 11H63.2496C62.5202 11 61.8207 11.2897 61.305 11.8054C60.7893 12.3212 60.4996 13.0206 60.4996 13.75V20.8615L47.8881 8.24997Z" fill="#2045FF"/>
<path d="M88 68.75C88 73.8554 85.9719 78.7517 82.3618 82.3618C78.7517 85.9719 73.8554 88 68.75 88C63.6446 88 58.7483 85.9719 55.1382 82.3618C51.5281 78.7517 49.5 73.8554 49.5 68.75C49.5 63.6446 51.5281 58.7483 55.1382 55.1382C58.7483 51.5281 63.6446 49.5 68.75 49.5C73.8554 49.5 78.7517 51.5281 82.3618 55.1382C85.9719 58.7483 88 63.6446 88 68.75ZM68.75 57.75C68.0207 57.75 67.3212 58.0397 66.8055 58.5555C66.2897 59.0712 66 59.7707 66 60.5V66H60.5C59.7707 66 59.0712 66.2897 58.5555 66.8055C58.0397 67.3212 57.75 68.0207 57.75 68.75C57.75 69.4793 58.0397 70.1788 58.5555 70.6945C59.0712 71.2103 59.7707 71.5 60.5 71.5H66V77C66 77.7293 66.2897 78.4288 66.8055 78.9445C67.3212 79.4603 68.0207 79.75 68.75 79.75C69.4793 79.75 70.1788 79.4603 70.6945 78.9445C71.2103 78.4288 71.5 77.7293 71.5 77V71.5H77C77.7293 71.5 78.4288 71.2103 78.9445 70.6945C79.4603 70.1788 79.75 69.4793 79.75 68.75C79.75 68.0207 79.4603 67.3212 78.9445 66.8055C78.4288 66.2897 77.7293 66 77 66H71.5V60.5C71.5 59.7707 71.2103 59.0712 70.6945 58.5555C70.1788 58.0397 69.4793 57.75 68.75 57.75Z" fill="#2045FF"/>
</svg>
